inDegrees=no
num_controls=7
num_derivatives=13
num_iterations=129
num_multipliers=7
num_parameters=0
num_slacks=7
num_states=26
objective=0.543904
objective_accelerations=0.060801
objective_balance=0.003286
objective_effort=0.047207
objective_height=0.422850
objective_ligament=0.009760
solver_duration=1378.888352
status=Solve_Succeeded
success=true
DataType=double
version=3
OpenSimVersion=4.5
endheader
time	/jointset/ground_pelvis/pelvis_tilt/value	/jointset/ground_pelvis/pelvis_tx/value	/jointset/ground_pelvis/pelvis_ty/value	/jointset/hip_r/hip_flexion_r/value	/jointset/hip_r/hip_adduction_r/value	/jointset/hip_r/hip_rotation_r/value	/jointset/back/lumbar_extension/value	/jointset/patellofemoral_r/patellar_flexion_r/value	/jointset/knee_r/knee_flexion_r/value	/jointset/knee_r/knee_adduction_r/value	/jointset/knee_r/knee_rotation_r/value	/jointset/ankle_r/ankle_angle_r/value	/jointset/subtalar_r/subtalar_angle_r/value	/jointset/ground_pelvis/pelvis_tilt/speed	/jointset/ground_pelvis/pelvis_tx/speed	/jointset/ground_pelvis/pelvis_ty/speed	/jointset/hip_r/hip_flexion_r/speed	/jointset/hip_r/hip_adduction_r/speed	/jointset/hip_r/hip_rotation_r/speed	/jointset/back/lumbar_extension/speed	/jointset/patellofemoral_r/patellar_flexion_r/speed	/jointset/knee_r/knee_flexion_r/speed	/jointset/knee_r/knee_adduction_r/speed	/jointset/knee_r/knee_rotation_r/speed	/jointset/ankle_r/ankle_angle_r/speed	/jointset/subtalar_r/subtalar_angle_r/speed	/forceset/tau_hip_flexion_r	/forceset/tau_hip_adduction_r	/forceset/tau_hip_rotation_r	/forceset/tau_knee_flexion_r	/forceset/tau_ankle_angle_r	/forceset/tau_subtalar_angle_r	/forceset/tau_lumbar_extension	lambda_cid13_p0	lambda_cid14_p0	lambda_cid14_p1	lambda_cid14_p2	lambda_cid14_p3	lambda_cid14_p4	lambda_cid14_p5	/jointset/ground_pelvis/pelvis_tilt/accel	/jointset/ground_pelvis/pelvis_tx/accel	/jointset/ground_pelvis/pelvis_ty/accel	/jointset/hip_r/hip_flexion_r/accel	/jointset/hip_r/hip_adduction_r/accel	/jointset/hip_r/hip_rotation_r/accel	/jointset/back/lumbar_extension/accel	/jointset/patellofemoral_r/patellar_flexion_r/accel	/jointset/knee_r/knee_flexion_r/accel	/jointset/knee_r/knee_adduction_r/accel	/jointset/knee_r/knee_rotation_r/accel	/jointset/ankle_r/ankle_angle_r/accel	/jointset/subtalar_r/subtalar_angle_r/accel	gamma_cid13_p0	gamma_cid14_p0	gamma_cid14_p1	gamma_cid14_p2	gamma_cid14_p3	gamma_cid14_p4	gamma_cid14_p5
0.5	-0.1900003428613361	0.008438765693796424	0.808681411016817	0.9713886780128677	-0.2457625945579724	-0.07107667880067106	-0.3392752598737092	0.8832139240944515	0.8832139240945128	0.06194310606566802	0.1740978071201249	0.274214042634025	0.03741275120943267	-0.491557438357762	-0.1648728981915479	-0.5519814299693234	2.154225502505267	-0.02218288467857766	0.4642525058810699	-0.5875199581518967	2.182134007748391	2.182134007748031	-0.1665540013627958	-0.004054499368035806	0.6165024932039952	0.1282703994844979	-0.1344960274624602	-0.02349830465698595	0.0165864765526559	-0.3721274637274157	0.09960249629177149	-0.009350140072733208	0.1753476547741376	-20.04567068591974	-9.399568067898784	-2.345167789109487	-3.00566869726413	-3.07615084117242	-657.339315158027	60.77981065301659	0.3956431017211154	0.5789250877848806	-0.5464522784489207	-1.286853838053242	0.1561825176738679	-0.2505044228061502	1.705264558976513	-1.481871578731111	-1.481871578731151	0.6204433075308031	-0.03492369921995779	-0.6875130315775633	0.108366730955034	-1.679662514138884e-07	-1.164676713418451e-07	1.636666558000202e-06	-7.595376448193501e-07	-1.10452313998745e-07	-2.404830668901079e-07	1.000013086046274e-06
0.51	-0.1948950909040638	0.006819174113559106	0.8031355769512492	0.9928631120471999	-0.2459773579463671	-0.06644760809603026	-0.3450648698201739	0.9049579374366863	0.9049579374367154	0.06030961190260186	0.1740571345304402	0.2803434756928357	0.03869960771140912	-0.487321181957291	-0.1590296185697042	-0.5570575283138249	2.14037182026894	-0.02076821675605211	0.4615325074796342	-0.5703348638785577	2.166368270112959	2.166368270112927	-0.1601504983661123	-0.004070946887181855	0.6092956558238226	0.1290837977748499	-0.1416528422571478	-0.02178382999080039	0.0170610145651469	-0.3764320575242983	0.09660295962472611	-0.008601743053810366	0.1817096577525301	-18.62068967432924	-10.63473527762199	-2.375230190300281	-2.842307261106356	-2.591720029198091	-662.8472291937396	60.81985978488616	0.4482533255119418	0.5893783395037476	-0.469058102305384	-1.478063230410586	0.1343491171119459	-0.2873489425838712	1.735206950979025	-1.668950931137616	-1.668950931088524	0.6496671782057997	0.01623645645287517	-0.7505778854466654	0.06542333547218153	-1.572047036482904e-07	-1.112061893381344e-07	1.532552829618417e-06	-7.181220733079631e-07	-1.021935494071672e-07	-2.306310608937248e-07	9.33955900055154e-07
0.52	-0.1997453490995272	0.005258485117563992	0.7975428080042654	1.01419032169637	-0.2461779266180179	-0.06184665765416211	-0.3506806138060125	0.9265352881875289	0.9265352881875315	0.05874002544600473	0.1740165458125011	0.286398178619003	0.03999411758776858	-0.4826594689047393	-0.1530923813431074	-0.5613684062525155	2.124780625473085	-0.01934394133072923	0.4586284533273374	-0.5527467660265539	2.148801489469988	2.148801489470282	-0.1537724600706853	-0.004037725017736395	0.6015564666752667	0.1298010743610782	-0.1488096570518394	-0.02006935532460944	0.01753555257759754	-0.3807366513211799	0.0936034229576834	-0.007853346034878609	0.1880716607309181	-17.20369916046029	-11.87268914378433	-2.402597172222237	-2.683011892241814	-2.122407177770099	-668.4063741666026	60.92059553173243	0.480734432137343	0.5977166087354374	-0.3934081972867056	-1.634356349958785	0.1581040182333294	-0.2873155729784103	1.785865274709495	-1.84208018023925	-1.842080180239258	0.6153503672794591	-0.02498982150164889	-0.7939833852542972	0.08914239013028806	-1.46378507949166e-07	-1.034207683689777e-07	1.428914617673189e-06	-6.704515969842571e-07	-9.700185423295717e-08	-2.145871465856453e-07	8.661141401316552e-07
0.53	-0.2045469700560799	0.003757586638403418	0.79191081744903	1.035353069941362	-0.246364118703616	-0.0572757371025269	-0.3561185478039411	0.9479280545934835	0.9479280545934703	0.05723379433041485	0.1739764521359207	0.2923729370039578	0.04129544158922478	-0.4776009748953953	-0.1470760449005589	-0.5648952842157536	2.107484152877209	-0.01789199088164933	0.4555094297648427	-0.5347839056084571	2.129456114305435	2.1294561143055	-0.1474974915001443	-0.003966958694942409	0.5933147331087133	0.1304493816351161	-0.1558152568459833	-0.0185756891628669	0.01798417752542811	-0.3853500788768253	0.09086751921500509	-0.007172056745532156	0.1943050266515511	-15.79790533251895	-13.04179608411869	-2.449221402428664	-2.518171014057697	-1.669889019911169	-674.1516479115008	61.04483934745956	0.5279584036232683	0.6052637451279279	-0.3122057410485673	-1.820036840326493	0.139111057787739	-0.3313340156232964	1.80991561805618	-2.025089658479715	-2.025089658514271	0.6301983408239202	0.02511666502529836	-0.8513746281999427	0.05066398463443908	-1.339152962057229e-07	-9.233379534206061e-08	1.337237774189721e-06	-6.004803084701992e-07	-9.535891003257749e-08	-1.960630011915066e-07	8.086245838226371e-07
0.54	-0.209296095768882	0.002317185840290857	0.7862475824851209	1.056334304635209	-0.2465357171848102	-0.05273743444006872	-0.3613751693591502	0.9691185025530104	0.9691185025529803	0.0557896385483161	0.1739374674837313	0.2982628567960783	0.04260284648114029	-0.4721604201544313	-0.1409928451335047	-0.5676172879872446	2.088477915244354	-0.01642522045087668	0.452104875492819	-0.5164842774824976	2.108337800184224	2.108337800184057	-0.1413573933743069	-0.003815920137934015	0.5845887481083957	0.1310172524529106	-0.1628208566401328	-0.01708202300112054	0.0184328024731998	-0.3899635064324697	0.08813161547232919	-0.00649076745617841	0.2005383925721782	-14.40593766001512	-14.21345257306686	-2.493454745730391	-2.356952357540314	-1.234495498195896	-679.9453210974631	61.22442774647395	0.5571465784614104	0.6110892736365197	-0.2324333589372812	-1.976309357354481	0.1610680145718719	-0.3444217148842404	1.853218816282044	-2.196667971571023	-2.196667971571151	0.5883762783387038	-0.008935374658762291	-0.8908336720072181	0.07305509888162046	-1.196409177749485e-07	-7.759404131506833e-08	1.258794785174583e-06	-5.058357809370283e-07	-9.764224350537191e-08	-1.747947703404513e-07	7.625885293849597e-07
0.55	-0.213988949345872	0.0009378489250033747	0.7805611692198861	1.077117132831916	-0.2466925489737024	-0.0482343551313793	-0.3664472605904129	0.9900890963984811	0.9900890963984822	0.05440623857178857	0.1739001661017243	0.3040631607456993	0.04391555072472852	-0.4663471879101089	-0.1348728894118325	-0.5695286050380457	2.067813642629776	-0.01494524786245126	0.4484940420246027	-0.49789560338748	2.08549925395294	2.085499253952886	-0.1353166315448288	-0.003642966475863753	0.5753937478565175	0.131498793121681	-0.1698224576793227	-0.01541478061716516	0.01886860919120627	-0.394375566498842	0.08500659359529249	-0.005992545197685059	0.2066955289481133	-13.02983059527011	-15.52246351432862	-2.662816137057167	-2.151144088604789	-0.6040119072291159	-685.7296836319463	61.16937208799798	0.6028695791964368	0.6126762205474622	-0.1499995137027695	-2.152608588139096	0.140854658376712	-0.3721228452149586	1.867446513582067	-2.369682821508131	-2.369682821491176	0.6129891001896528	0.03055582948236461	-0.9456086123867296	0.03212126863957863	-7.727270677061938e-08	-9.175938440731574e-09	1.377326037650952e-06	-5.436657232725714e-08	-1.581063337451916e-07	-1.253372071636131e-07	8.652641279323441e-07
0.5600000000000001	-0.2186217789940645	-0.0003802429332445447	0.774859739057033	1.097685093827549	-0.2468347024812279	-0.04376792589385897	-0.371332314119232	1.010822857807122	1.010822857807154	0.05308345880655312	0.1738646232748938	0.3097691596106797	0.04523235391855752	-0.4601556343946299	-0.1287438337255923	-0.5706206675109022	2.04550447503001	-0.01348956417807671	0.4447748612594054	-0.4790767369936379	2.060971312817612	2.060971312817671	-0.129233351117863	-0.003464209100096014	0.565727731180294	0.1318370425010451	-0.1768240587185191	-0.01374753823320281	0.01930441590907648	-0.3987876265652125	0.08188157171825931	-0.005494322939178835	0.2128526653240415	-11.67105903038389	-16.83454436614377	-2.831365817769233	-1.947006319696476	0.01231502231628521	-691.5666177438223	61.16180716677826	0.6328108326928117	0.6129092665500403	-0.06858244334839463	-2.305288354392006	0.1562102337616861	-0.3660911742804694	1.899257276046979	-2.534546952379986	-2.534546952380014	0.5968799978362095	-0.00777463191926467	-0.9850369568763643	0.04439684100035907	-1.19189667802557e-09	1.236561830504165e-07	1.732226379917121e-06	8.252922535744202e-07	-2.883873321054394e-07	-4.20524451958367e-08	1.146393710061797e-06
